#N canvas 234 35 601 734 10;
#X declare -lib mrpeach;
#X obj 117 44 tgl 15 0 empty empty empty 17 7 0 10 -262144 -1 -1 1
1;
#X obj 110 88 metro 250;
#X obj 104 129 counter 3;
#X obj 46 320 osc~;
#X obj 67 526 dac~;
#X obj 86 161 select 0 1 2 3;
#X obj 61 430 *~;
#X floatatom 61 247 5 0 0 0 - - -;
#X obj 421 14 import mrpeach;
#X obj 453 317 udpsend;
#X obj 421 395 packOSC;
#X msg 284 204 send /x1 \$1;
#X msg 514 106 disconnect;
#X msg 301 440 send /x2 \$1;
#X obj 191 373 vsl 15 128 0 1 0 0 empty empty empty 0 -9 0 10 -262144
-1 -1 0 1;
#X obj 28 210 220;
#X msg 390 61 connect 192.168.1.73 12000;
#X obj 142 212 520;
#X obj 68 209 600;
#X obj 102 213 1100;
#X connect 0 0 1 0;
#X connect 1 0 2 0;
#X connect 2 0 5 0;
#X connect 3 0 6 0;
#X connect 5 0 15 0;
#X connect 5 1 18 0;
#X connect 5 2 19 0;
#X connect 5 3 17 0;
#X connect 6 0 4 0;
#X connect 6 0 4 1;
#X connect 7 0 3 0;
#X connect 7 0 13 0;
#X connect 10 0 9 0;
#X connect 11 0 10 0;
#X connect 12 0 9 0;
#X connect 13 0 10 0;
#X connect 14 0 6 1;
#X connect 14 0 11 0;
#X connect 15 0 7 0;
#X connect 16 0 9 0;
#X connect 17 0 7 0;
#X connect 18 0 7 0;
#X connect 19 0 7 0;
